<svg width="1879" height="1951" viewBox="0 0 1879 1951" fill="none" xmlns="http://www.w3.org/2000/svg">
<g filter="url(#filter0_f_254_848)">
<ellipse cx="939.187" cy="947.272" rx="364.813" ry="372.272" fill="#FF16F0"/>
</g>
<g filter="url(#filter1_f_254_848)">
<ellipse cx="868.081" cy="937.093" rx="221.152" ry="228.308" fill="#1AC7FF"/>
</g>
<g filter="url(#filter2_f_254_848)">
<ellipse cx="1058.47" cy="1102" rx="164.848" ry="165.196" fill="#339DFF"/>
</g>
<g filter="url(#filter3_f_254_848)">
<path d="M869.606 1121.58C715.782 1086.09 704.237 747.019 677.326 864.133C663.117 925.972 588.832 1086.28 600.541 1198.3C611.008 1298.42 702.112 1353.42 774.714 1370.17C928.538 1405.67 1102.67 1289.97 1129.58 1172.85C1156.49 1055.74 1023.43 1157.08 869.606 1121.58Z" fill="#0032EF"/>
</g>
<defs>
<filter id="filter0_f_254_848" x="0.342468" y="0.969299" width="1877.69" height="1892.61" filterUnits="userSpaceOnUse" color-interpolation-filters="sRGB">
<feFlood flood-opacity="0" result="BackgroundImageFix"/>
<feBlend mode="normal" in="SourceGraphic" in2="BackgroundImageFix" result="shape"/>
<feGaussianBlur stdDeviation="287.015" result="effect1_foregroundBlur_254_848"/>
</filter>
<filter id="filter1_f_254_848" x="72.8989" y="134.755" width="1590.37" height="1604.68" filterUnits="userSpaceOnUse" color-interpolation-filters="sRGB">
<feFlood flood-opacity="0" result="BackgroundImageFix"/>
<feBlend mode="normal" in="SourceGraphic" in2="BackgroundImageFix" result="shape"/>
<feGaussianBlur stdDeviation="287.015" result="effect1_foregroundBlur_254_848"/>
</filter>
<filter id="filter2_f_254_848" x="319.59" y="362.772" width="1477.76" height="1478.45" filterUnits="userSpaceOnUse" color-interpolation-filters="sRGB">
<feFlood flood-opacity="0" result="BackgroundImageFix"/>
<feBlend mode="normal" in="SourceGraphic" in2="BackgroundImageFix" result="shape"/>
<feGaussianBlur stdDeviation="287.015" result="effect1_foregroundBlur_254_848"/>
</filter>
<filter id="filter3_f_254_848" x="25.264" y="265.614" width="1681.83" height="1685.1" filterUnits="userSpaceOnUse" color-interpolation-filters="sRGB">
<feFlood flood-opacity="0" result="BackgroundImageFix"/>
<feBlend mode="normal" in="SourceGraphic" in2="BackgroundImageFix" result="shape"/>
<feGaussianBlur stdDeviation="287.015" result="effect1_foregroundBlur_254_848"/>
</filter>
</defs>
</svg>
